<svg width="355" height="38" viewBox="0 0 355 38" fill="none" xmlns="http://www.w3.org/2000/svg">
<path d="M20.5467 7.32213C20.3029 5.27443 17.5378 4.7033 16.897 4.41774C16.5279 4.25058 16.1866 4.16003 15.901 4.16003C15.6782 4.16003 15.3508 4.20182 15.0026 4.57097C14.508 5.09334 14.2225 6.00575 14.2782 6.8903L10.7121 8.49921C10.7052 8.49921 10.6982 8.49225 10.6843 8.49225C10.4892 8.43653 10.2873 8.40867 10.0853 8.40867C9.06839 8.40867 8.16991 9.0982 7.90524 10.0733C7.8147 10.4146 7.80077 10.7628 7.87738 11.118L5.21676 14.0294C4.96602 14.2244 4.76404 14.4682 4.61081 14.7538C4.33221 15.2901 4.27649 15.903 4.45061 16.4811C4.52723 16.7388 4.6526 16.9756 4.81279 17.1845L4.86155 17.2472C5.59983 18.2014 5.33516 19.5875 4.29738 20.2073C3.72626 20.5486 3.28746 21.0989 3.16209 21.7466C3.09618 22.0747 3.10386 22.4134 3.18457 22.7382C3.26528 23.063 3.41701 23.3659 3.62884 23.625C3.84067 23.8842 4.10733 24.0931 4.4096 24.2368C4.71188 24.3805 5.04226 24.4553 5.37695 24.456C5.47446 24.456 5.56501 24.442 5.66252 24.4351L7.55699 27.7992C7.18785 28.2728 7.02765 28.8509 7.0973 29.4638C7.20178 30.3762 7.89828 31.1632 8.78979 31.3861C9.4445 31.5463 10.0992 31.414 10.6355 31.0448L13.916 32.7025C13.9648 34.4925 15.1836 34.7572 15.901 34.7572C16.7856 34.7572 18.3109 34.2557 18.4432 32.3751L20.5467 32.2985V7.32213Z" fill="#1FDDE7"/>
<path d="M40.9053 20.6879C40.5919 19.8939 39.8884 19.8939 39.5611 19.9984C39.3869 20.0541 39.1501 20.2004 38.9969 20.4441C38.8576 20.667 38.7879 20.9665 38.8924 21.3566C38.9133 21.4262 38.9412 21.5028 38.983 21.5725C39.178 21.9416 39.4426 22.1157 39.7004 22.1784C39.931 22.2315 40.1726 22.2096 40.3899 22.1157C40.7033 21.9695 41.2118 21.4889 40.9053 20.6879ZM40.0347 23.2928C40.5501 23.5645 40.7451 24.1983 40.4735 24.7067C40.108 25.4051 39.5924 26.014 38.9638 26.4896C38.3353 26.9653 37.6092 27.2959 36.8377 27.4579C36.991 27.9176 37.0955 28.3981 37.1233 28.8927C37.1303 28.9902 37.1303 29.0877 37.1303 29.1922C37.1303 29.7633 36.6636 30.2369 36.0855 30.2369C35.8696 30.2369 35.6676 30.1672 35.5005 30.0558C35.2219 29.8678 35.0408 29.5474 35.0408 29.1922V29.0111C35.006 28.4539 34.8318 27.9245 34.5393 27.4509C32.9095 27.0887 31.4956 25.9952 30.7852 24.4281C30.7284 24.3037 30.6967 24.1694 30.6919 24.0327C30.6871 23.8961 30.7092 23.7598 30.7571 23.6318C30.805 23.5037 30.8776 23.3863 30.9709 23.2863C31.0641 23.1863 31.1762 23.1057 31.3006 23.049C31.8299 22.8053 32.4498 23.0421 32.6866 23.5645C32.9502 24.1419 33.3736 24.6318 33.9068 24.9762C34.44 25.3205 35.0607 25.505 35.6955 25.5077C36.9283 25.5077 38.0497 24.8251 38.6277 23.7316C38.7568 23.4875 38.9771 23.3044 39.2407 23.2221C39.5043 23.1399 39.7897 23.1653 40.0347 23.2928ZM36.392 10.7698C39.0317 11.7797 40.4804 14.6771 39.6307 17.4144C39.4357 18.0203 39.1432 18.5915 38.7531 19.0999C38.5511 19.3646 38.2377 19.5039 37.9243 19.5039C37.7014 19.5039 37.4785 19.4342 37.2905 19.288C36.8308 18.9397 36.7472 18.285 37.0955 17.8253C37.3392 17.5119 37.5203 17.1636 37.6318 16.7945C38.1193 15.2204 37.3671 13.5627 35.9323 12.8523C35.8557 13.0195 35.7721 13.1866 35.6816 13.3468C34.9711 14.6005 33.808 15.492 32.415 15.8751C32.1481 15.9466 31.8638 15.9098 31.6239 15.7729C31.3839 15.636 31.2077 15.4099 31.1334 15.1438C30.9802 14.5866 31.3145 14.0085 31.8648 13.8553C32.2851 13.7438 32.679 13.5496 33.0234 13.2841C33.3678 13.0186 33.6558 12.6871 33.8707 12.309C34.0862 11.9318 34.2252 11.5157 34.2799 11.0847C34.3345 10.6537 34.3037 10.2161 34.1893 9.79701C34.0748 9.37789 33.8788 8.98542 33.6127 8.64204C33.3465 8.29866 33.0152 8.01109 32.6379 7.79575C32.2617 7.57954 31.8465 7.43991 31.4162 7.38492C30.9859 7.32994 30.5489 7.36067 30.1305 7.47536C30.0887 7.48929 30.0539 7.51018 30.019 7.51715C29.9285 8.06738 29.7683 8.59672 29.5315 9.0982C29.1066 9.98971 28.4728 10.6862 27.6858 11.1668C26.8918 11.6404 25.9515 11.8981 24.8998 11.8981C24.3217 11.8981 23.855 11.4315 23.855 10.8534C23.855 10.2822 24.3217 9.80862 24.8998 9.80862C26.5296 9.80862 27.2957 8.93104 27.644 8.19971C28.2499 6.92512 28.0619 5.16995 27.2122 4.11824C26.5296 3.27548 25.5406 2.98991 24.3217 3.27548C22.7406 3.65159 21.8979 4.80081 21.5984 7.11318C21.7029 8.02559 21.7098 8.90318 21.7168 9.6345C21.7307 11.4036 21.7098 13.1727 21.682 14.9348C21.7238 15.0184 21.7725 15.102 21.8422 15.1717C22.1974 15.5199 22.866 15.701 23.4023 15.7846C23.8899 15.0184 24.8789 13.8971 26.5435 13.7299C26.8197 13.7022 27.0955 13.7853 27.3104 13.961C27.5253 14.1367 27.6615 14.3905 27.6893 14.6667C27.717 14.9429 27.6338 15.2187 27.4582 15.4336C27.2825 15.6484 27.0286 15.7847 26.7525 15.8124C25.5197 15.9308 24.9764 17.2403 24.9764 17.2542C24.8162 17.6512 24.4331 17.9159 24.0083 17.9159H23.9874C23.7715 17.9159 22.6989 17.895 21.6541 17.4701C21.6332 18.8631 21.6053 20.2491 21.5984 21.6421C21.5914 21.858 21.5914 22.0809 21.5914 22.2968C21.5914 22.868 21.1248 23.3346 20.5467 23.3346C19.9686 23.3346 19.5019 22.861 19.5019 22.2829C19.5019 22.0879 19.5089 21.8929 19.5089 21.6909C19.5089 21.663 19.5019 21.6352 19.5019 21.6073C19.5019 20.2213 19.481 18.8422 19.4601 17.4631C18.4084 17.895 17.3219 17.9159 17.106 17.9159H17.0851C16.6602 17.9159 16.2771 17.6512 16.117 17.2542C16.103 17.2054 15.5667 15.9308 14.3409 15.8124C14.2041 15.7987 14.0714 15.7582 13.9504 15.6932C13.8293 15.6282 13.7222 15.54 13.6352 15.4336C13.5482 15.3272 13.483 15.2047 13.4434 15.0731C13.4037 14.9415 13.3904 14.8034 13.4041 14.6667C13.4178 14.53 13.4583 14.3973 13.5233 14.2762C13.5883 14.1551 13.6766 14.048 13.7829 13.961C13.9978 13.7853 14.2737 13.7022 14.5498 13.7299C16.2145 13.8971 17.2035 15.0184 17.691 15.7776C17.9348 15.7428 18.2343 15.6871 18.5199 15.5826C19.091 15.3876 19.3208 15.1438 19.4253 14.9279C19.3905 12.9847 19.3696 11.0066 19.3905 9.04944C19.3975 8.52707 19.4044 7.83057 19.488 7.05746C19.2721 5.43462 18.7219 4.09038 17.3289 3.46353C16.117 2.9133 15.107 3.01081 14.3339 3.75606C13.2892 4.76598 12.9131 6.74403 13.5051 8.17185C13.8115 8.92407 14.515 9.80862 16.1309 9.80862H16.1936C16.4706 9.80678 16.7371 9.91508 16.9344 10.1097C17.1316 10.3043 17.2434 10.5693 17.2453 10.8464C17.2471 11.1235 17.1388 11.39 16.9442 11.5872C16.7496 11.7844 16.4846 11.8963 16.2075 11.8981H16.1309C13.9996 11.8981 12.335 10.8325 11.5688 8.96586C11.3877 8.5201 11.2763 8.04648 11.2136 7.5659C11.13 7.53804 11.0464 7.50322 10.9629 7.47536C10.1131 7.24551 9.22163 7.35695 8.45548 7.79575C8.07812 8.01109 7.74689 8.29866 7.4807 8.64204C7.2145 8.98542 7.01857 9.37789 6.90409 9.79701C6.78961 10.2161 6.75882 10.6537 6.81348 11.0847C6.86815 11.5157 7.00719 11.9318 7.22268 12.309C7.66147 13.0752 8.3719 13.6254 9.22859 13.8553C9.77882 14.0085 10.1131 14.5866 9.95991 15.1438C9.88566 15.4099 9.70942 15.636 9.46947 15.7729C9.22952 15.9098 8.94523 15.9466 8.67836 15.8751C7.28536 15.492 6.12221 14.6005 5.41179 13.3468C5.32124 13.1866 5.23766 13.0195 5.16105 12.8523C3.72626 13.5558 2.96708 15.2204 3.46159 16.7875C3.57303 17.1636 3.75412 17.5119 3.9979 17.8253C4.08691 17.9424 4.15028 18.077 4.1839 18.2202C4.21752 18.3634 4.22064 18.5121 4.19306 18.6566C4.16547 18.8011 4.10779 18.9382 4.02377 19.059C3.93975 19.1798 3.83127 19.2815 3.70537 19.3576C3.21157 19.6492 2.80264 20.0649 2.51918 20.5634C2.23572 21.0619 2.08758 21.6259 2.08949 22.1993C2.08949 22.7774 1.62284 23.2441 1.04475 23.2441C0.466653 23.2441 0 22.7774 0 22.1993C0 20.667 0.661673 19.2113 1.77607 18.1945C1.65015 17.9412 1.54532 17.6779 1.46264 17.4074C0.612918 14.6771 2.06163 11.7727 4.70136 10.7698C4.68743 10.2613 4.75011 9.7529 4.88941 9.25143C5.26552 7.85843 6.164 6.70224 7.4177 5.98485C8.57854 5.31589 9.94901 5.10945 11.2554 5.40676C11.4922 4.19485 12.0494 3.05956 12.8852 2.25162C14.2712 0.91435 16.2075 0.656645 18.1925 1.55513C19.2651 2.04268 20.0104 2.774 20.5258 3.61676C21.1805 2.53022 22.2113 1.63174 23.8411 1.2417C25.8331 0.768085 27.6509 1.33921 28.835 2.80186C29.427 3.53318 29.8031 4.43166 29.9773 5.37193C31.2449 5.12816 32.5404 5.33711 33.6757 5.98485C34.2928 6.33429 34.8342 6.80309 35.2682 7.36392C35.7023 7.92475 36.0204 8.56639 36.2039 9.25143C36.3432 9.7529 36.4059 10.2683 36.392 10.7698ZM39.5332 6.51419C39.6934 7.30123 39.1571 7.7261 38.7601 7.81664C38.6835 7.83754 38.6138 7.8445 38.5442 7.8445C38.0636 7.8445 37.6109 7.47536 37.4925 6.99477C37.4855 6.96691 37.4785 6.93209 37.4716 6.89726C37.3462 6.11022 37.9034 5.71322 38.3074 5.6366C38.8646 5.53213 39.4148 5.96396 39.5332 6.51419ZM38.4397 3.61676C38.5405 3.77409 38.5971 3.95567 38.6035 4.14242C38.6099 4.32917 38.5659 4.5142 38.4761 4.67808C38.3864 4.84196 38.2541 4.97864 38.0933 5.07377C37.9324 5.1689 37.749 5.21896 37.5621 5.2187C37.2139 5.2187 36.8795 5.05155 36.6776 4.73812C35.1453 2.3352 32.0319 2.09143 31.9971 2.09143C31.721 2.0718 31.464 1.94342 31.2825 1.73449C31.101 1.52556 31.0098 1.25314 31.029 0.977034C31.0638 0.405906 31.5444 -0.0328871 32.1294 0.00193779C32.3036 0.0158677 36.3293 0.301432 38.4397 3.61676ZM35.8627 30.9195C36.3293 31.2607 36.4268 31.9155 36.0855 32.3821C35.9044 32.6329 35.7025 32.8627 35.4796 33.0786C35.2776 33.2736 35.0129 33.3642 34.7552 33.3642C34.5801 33.3654 34.4076 33.322 34.254 33.2379C34.1004 33.1537 33.9709 33.0318 33.8776 32.8836C33.613 32.4727 33.6617 31.9224 34.0309 31.5672C34.1632 31.4418 34.2955 31.2956 34.407 31.1423C34.4877 31.0319 34.5895 30.9385 34.7065 30.8675C34.8234 30.7965 34.9533 30.7493 35.0885 30.7285C35.2238 30.7078 35.3618 30.714 35.4946 30.7468C35.6275 30.7796 35.7525 30.8382 35.8627 30.9195Z" fill="#2C5254"/>
<path d="M32.603 32.9602C32.7145 33.1204 32.7841 33.3224 32.7841 33.5383C32.7841 34.1164 32.3105 34.583 31.7394 34.583C31.1474 34.583 30.5832 34.4855 30.0539 34.3114C29.3574 36.7004 27.247 37.8496 25.2898 37.8914H25.1714C23.465 37.8914 21.6541 37.0904 20.5467 35.5512C19.4323 37.0904 17.6214 37.8914 15.915 37.8914H15.8035C13.8464 37.8496 11.736 36.7004 11.0395 34.3114C10.5101 34.4855 9.94598 34.583 9.35396 34.583C8.49842 34.5826 7.65524 34.3788 6.89401 33.9883C6.13278 33.5978 5.47534 33.0318 4.97594 32.3372C4.47655 31.6425 4.14952 30.839 4.02185 29.9931C3.89417 29.1471 3.96952 28.2829 4.24167 27.4718C3.08489 27.2163 2.04311 26.5903 1.27459 25.6888C0.905448 25.243 0.961168 24.5883 1.39996 24.2122C1.44872 24.1704 1.49747 24.1356 1.55319 24.1007C1.98502 23.857 2.54222 23.9406 2.86957 24.3376C3.18165 24.7034 3.5692 24.9974 4.00561 25.1994C4.44203 25.4014 4.91697 25.5065 5.39786 25.5077C6.68638 25.5077 7.87042 24.7415 8.40672 23.5644C8.64353 23.0421 9.26342 22.8053 9.79276 23.049C10.0783 23.1814 10.2803 23.4251 10.3569 23.7037C10.4266 23.9406 10.4126 24.1913 10.3082 24.4281C9.9594 25.1884 9.43872 25.8572 8.78722 26.3818C8.13572 26.9064 7.37122 27.2724 6.55404 27.4509C6.22669 27.9733 6.05256 28.5653 6.05256 29.1921C6.0544 30.0672 6.40282 30.9058 7.02155 31.5246C7.64029 32.1433 8.47894 32.4917 9.35396 32.4935C11.1788 32.4935 12.6623 31.01 12.6623 29.1921C12.6623 28.6141 13.129 28.1474 13.7071 28.1474C14.2852 28.1474 14.7518 28.6141 14.7518 29.1921C14.7518 30.7871 14.0484 32.2219 12.9479 33.2109C13.2056 35.0567 14.5707 35.774 15.8453 35.8019H15.9219C17.5866 35.8019 19.3278 34.6736 19.495 32.4796C19.3975 30.9891 19.4323 29.4707 19.4671 28.0081C19.488 27.2628 19.5019 26.5246 19.5019 25.7932V25.5773C19.5019 24.9992 19.9686 24.5326 20.5467 24.5326C21.1248 24.5326 21.5914 24.9992 21.5914 25.5773C21.5914 26.3295 21.6123 27.0887 21.6262 27.8549C21.6611 29.3732 21.6959 30.9473 21.5914 32.4935C21.7655 34.6736 23.4998 35.8019 25.1645 35.8019H25.2411C26.5226 35.774 27.8878 35.0567 28.1455 33.2109C27.5792 32.7055 27.1258 32.0863 26.815 31.3939C26.5042 30.7014 26.3428 29.9512 26.3415 29.1921C26.3415 28.6141 26.8082 28.1474 27.3863 28.1474C27.9644 28.1474 28.431 28.6141 28.431 29.1921C28.431 31.01 29.9146 32.4935 31.7394 32.4935C32.0946 32.4935 32.415 32.6816 32.603 32.9602ZM27.8947 22.3804C28.0488 22.3887 28.1991 22.4307 28.3352 22.5034C28.4712 22.5762 28.5896 22.678 28.682 22.8016C28.7743 22.9252 28.8384 23.0675 28.8696 23.2186C28.9009 23.3697 28.8986 23.5258 28.8629 23.6759C28.8056 23.9024 28.6746 24.1034 28.4905 24.2471C28.3063 24.3909 28.0796 24.4693 27.846 24.4699H27.8042C27.4768 24.456 24.5933 24.2679 23.5625 22.1088C23.5023 21.9854 23.4671 21.8514 23.459 21.7143C23.451 21.5773 23.4701 21.44 23.5155 21.3105C23.5608 21.1809 23.6314 21.0617 23.7232 20.9596C23.815 20.8575 23.9261 20.7746 24.0501 20.7158C24.5724 20.465 25.1923 20.6809 25.4431 21.2033C25.8679 22.0879 27.3584 22.3525 27.8947 22.3804Z" fill="#2C5254"/>
<path d="M17.6353 21.656C17.6353 21.8093 17.6005 21.9625 17.5308 22.1088C16.5 24.2679 13.6165 24.456 13.2892 24.4699H13.2474C12.9778 24.4687 12.719 24.364 12.5245 24.1773C12.33 23.9906 12.2148 23.7362 12.2026 23.4669C12.1748 22.8958 12.6205 22.4083 13.1986 22.3804C13.7349 22.3525 15.2254 22.0879 15.6503 21.2033C15.901 20.6809 16.5209 20.465 17.0433 20.7158C17.4194 20.8969 17.6353 21.266 17.6353 21.656ZM5.71128 35.4885C6.25455 35.6905 6.53315 36.2964 6.3242 36.8327C6.17097 37.2576 5.77397 37.5153 5.3491 37.5153C5.22373 37.5153 5.10533 37.4944 4.98692 37.4526C1.76911 36.2477 0.571129 32.9881 0.522374 32.8488C0.327355 32.3055 0.612919 31.7135 1.15619 31.5184C1.69946 31.3234 2.29148 31.602 2.4865 32.1453C2.49346 32.1662 3.4198 34.6388 5.71128 35.4885Z" fill="#2C5254"/>
<path d="M51.608 26V9.2H58.784C59.952 9.2 60.936 9.384 61.736 9.752C62.536 10.104 63.144 10.608 63.56 11.264C63.992 11.904 64.208 12.664 64.208 13.544C64.208 14.392 64.024 15.104 63.656 15.68C63.288 16.256 62.8 16.696 62.192 17C61.6 17.304 60.944 17.488 60.224 17.552L60.608 17.264C61.392 17.296 62.08 17.504 62.672 17.888C63.264 18.272 63.728 18.776 64.064 19.4C64.416 20.008 64.592 20.68 64.592 21.416C64.592 22.328 64.376 23.128 63.944 23.816C63.512 24.504 62.88 25.04 62.048 25.424C61.216 25.808 60.208 26 59.024 26H51.608ZM55.208 23.072H58.424C59.224 23.072 59.84 22.896 60.272 22.544C60.72 22.176 60.944 21.648 60.944 20.96C60.944 20.272 60.712 19.736 60.248 19.352C59.8 18.968 59.176 18.776 58.376 18.776H55.208V23.072ZM55.208 16.112H58.16C58.928 16.112 59.512 15.936 59.912 15.584C60.328 15.232 60.536 14.736 60.536 14.096C60.536 13.456 60.328 12.96 59.912 12.608C59.512 12.24 58.92 12.056 58.136 12.056H55.208V16.112ZM67.1225 26V13.904H70.3145L70.6505 16.112C70.9705 15.6 71.3465 15.16 71.7785 14.792C72.2105 14.424 72.7065 14.136 73.2665 13.928C73.8425 13.72 74.4585 13.616 75.1145 13.616V17.432H73.9145C73.4345 17.432 72.9945 17.488 72.5945 17.6C72.2105 17.696 71.8745 17.864 71.5865 18.104C71.3145 18.344 71.0985 18.672 70.9385 19.088C70.7945 19.488 70.7225 19.992 70.7225 20.6V26H67.1225ZM81.3286 26.288C80.3206 26.288 79.4806 26.128 78.8086 25.808C78.1526 25.488 77.6646 25.056 77.3446 24.512C77.0406 23.952 76.8886 23.336 76.8886 22.664C76.8886 21.944 77.0646 21.312 77.4166 20.768C77.7846 20.208 78.3526 19.768 79.1206 19.448C79.8886 19.112 80.8566 18.944 82.0246 18.944H84.9526C84.9526 18.4 84.8806 17.952 84.7366 17.6C84.6086 17.248 84.3926 16.984 84.0886 16.808C83.7846 16.632 83.3686 16.544 82.8406 16.544C82.2806 16.544 81.8086 16.656 81.4246 16.88C81.0406 17.104 80.8006 17.456 80.7046 17.936H77.2486C77.3286 17.072 77.6086 16.32 78.0886 15.68C78.5846 15.04 79.2406 14.536 80.0566 14.168C80.8726 13.8 81.8086 13.616 82.8646 13.616C84.0166 13.616 85.0166 13.808 85.8646 14.192C86.7126 14.56 87.3686 15.104 87.8326 15.824C88.3126 16.544 88.5526 17.44 88.5526 18.512V26H85.5526L85.1206 24.248C84.9446 24.552 84.7366 24.832 84.4966 25.088C84.2566 25.328 83.9766 25.544 83.6566 25.736C83.3366 25.912 82.9846 26.048 82.6006 26.144C82.2166 26.24 81.7926 26.288 81.3286 26.288ZM82.2166 23.552C82.6006 23.552 82.9366 23.488 83.2246 23.36C83.5126 23.232 83.7606 23.056 83.9686 22.832C84.1766 22.608 84.3446 22.352 84.4726 22.064C84.6166 21.76 84.7206 21.432 84.7846 21.08V21.056H82.4566C82.0566 21.056 81.7206 21.112 81.4486 21.224C81.1926 21.32 81.0006 21.464 80.8726 21.656C80.7446 21.848 80.6806 22.072 80.6806 22.328C80.6806 22.6 80.7446 22.832 80.8726 23.024C81.0166 23.2 81.2006 23.336 81.4246 23.432C81.6646 23.512 81.9286 23.552 82.2166 23.552ZM91.5924 26V13.904H95.1924V26H91.5924ZM93.3924 12.512C92.7524 12.512 92.2324 12.328 91.8324 11.96C91.4324 11.592 91.2324 11.128 91.2324 10.568C91.2324 9.992 91.4324 9.52 91.8324 9.152C92.2324 8.784 92.7524 8.6 93.3924 8.6C94.0484 8.6 94.5764 8.784 94.9764 9.152C95.3924 9.52 95.6004 9.992 95.6004 10.568C95.6004 11.128 95.3924 11.592 94.9764 11.96C94.5764 12.328 94.0484 12.512 93.3924 12.512ZM98.3647 26V13.904H101.509L101.797 15.848C102.165 15.176 102.685 14.64 103.357 14.24C104.029 13.824 104.845 13.616 105.805 13.616C106.813 13.616 107.661 13.832 108.349 14.264C109.037 14.696 109.557 15.32 109.909 16.136C110.277 16.936 110.461 17.92 110.461 19.088V26H106.885V19.424C106.885 18.544 106.693 17.864 106.309 17.384C105.941 16.888 105.349 16.64 104.533 16.64C104.053 16.64 103.613 16.76 103.213 17C102.829 17.224 102.525 17.552 102.301 17.984C102.077 18.416 101.965 18.936 101.965 19.544V26H98.3647ZM126.529 26.288C124.849 26.288 123.401 25.928 122.185 25.208C120.969 24.472 120.033 23.456 119.377 22.16C118.721 20.848 118.393 19.344 118.393 17.648C118.393 15.92 118.721 14.408 119.377 13.112C120.033 11.8 120.969 10.776 122.185 10.04C123.401 9.288 124.849 8.912 126.529 8.912C128.609 8.912 130.305 9.432 131.617 10.472C132.945 11.512 133.769 12.976 134.089 14.864H130.153C129.961 14.016 129.553 13.36 128.929 12.896C128.305 12.416 127.497 12.176 126.505 12.176C125.561 12.176 124.753 12.4 124.081 12.848C123.425 13.296 122.921 13.928 122.569 14.744C122.233 15.544 122.065 16.512 122.065 17.648C122.065 18.752 122.233 19.712 122.569 20.528C122.921 21.328 123.425 21.952 124.081 22.4C124.753 22.832 125.561 23.048 126.505 23.048C127.497 23.048 128.297 22.84 128.905 22.424C129.529 21.992 129.945 21.376 130.153 20.576H134.089C133.769 22.352 132.945 23.752 131.617 24.776C130.305 25.784 128.609 26.288 126.529 26.288ZM142.54 26.288C141.372 26.288 140.324 26.016 139.396 25.472C138.468 24.928 137.732 24.184 137.188 23.24C136.644 22.28 136.372 21.192 136.372 19.976C136.372 18.728 136.644 17.632 137.188 16.688C137.732 15.728 138.468 14.976 139.396 14.432C140.34 13.888 141.388 13.616 142.54 13.616C143.724 13.616 144.78 13.888 145.708 14.432C146.636 14.976 147.372 15.728 147.916 16.688C148.46 17.632 148.732 18.72 148.732 19.952C148.732 21.184 148.46 22.28 147.916 23.24C147.372 24.184 146.636 24.928 145.708 25.472C144.78 26.016 143.724 26.288 142.54 26.288ZM142.54 23.168C143.02 23.168 143.444 23.048 143.812 22.808C144.196 22.568 144.5 22.208 144.724 21.728C144.948 21.248 145.06 20.656 145.06 19.952C145.06 19.248 144.948 18.656 144.724 18.176C144.5 17.696 144.204 17.336 143.836 17.096C143.468 16.856 143.044 16.736 142.564 16.736C142.084 16.736 141.652 16.856 141.268 17.096C140.9 17.336 140.604 17.696 140.38 18.176C140.156 18.656 140.044 19.248 140.044 19.952C140.044 20.656 140.156 21.248 140.38 21.728C140.604 22.208 140.9 22.568 141.268 22.808C141.652 23.048 142.076 23.168 142.54 23.168ZM151.498 26V13.904H154.642L154.954 15.464C155.338 14.904 155.842 14.456 156.466 14.12C157.106 13.784 157.842 13.616 158.674 13.616C159.266 13.616 159.802 13.696 160.282 13.856C160.762 14 161.186 14.224 161.554 14.528C161.922 14.816 162.226 15.184 162.466 15.632C162.93 15.008 163.522 14.52 164.242 14.168C164.962 13.8 165.746 13.616 166.594 13.616C167.682 13.616 168.578 13.832 169.282 14.264C170.002 14.696 170.538 15.32 170.89 16.136C171.242 16.952 171.418 17.944 171.418 19.112V26H167.842V19.424C167.842 18.544 167.666 17.864 167.314 17.384C166.978 16.888 166.434 16.64 165.682 16.64C165.202 16.64 164.778 16.76 164.41 17C164.042 17.24 163.754 17.576 163.546 18.008C163.354 18.44 163.258 18.96 163.258 19.568V26H159.682V19.424C159.682 18.544 159.506 17.864 159.154 17.384C158.802 16.888 158.234 16.64 157.45 16.64C157.002 16.64 156.594 16.76 156.226 17C155.874 17.24 155.594 17.576 155.386 18.008C155.194 18.44 155.098 18.96 155.098 19.568V26H151.498ZM174.419 31.28V13.904H177.611L178.019 15.488C178.275 15.152 178.571 14.84 178.907 14.552C179.243 14.264 179.643 14.04 180.107 13.88C180.587 13.704 181.147 13.616 181.787 13.616C182.907 13.616 183.891 13.896 184.739 14.456C185.603 15.016 186.291 15.776 186.803 16.736C187.315 17.68 187.571 18.76 187.571 19.976C187.571 21.192 187.307 22.28 186.779 23.24C186.267 24.184 185.579 24.928 184.715 25.472C183.851 26.016 182.883 26.288 181.811 26.288C180.947 26.288 180.203 26.136 179.579 25.832C178.955 25.528 178.435 25.104 178.019 24.56V31.28H174.419ZM180.899 23.144C181.475 23.144 181.987 23.016 182.435 22.76C182.899 22.488 183.259 22.112 183.515 21.632C183.771 21.152 183.899 20.6 183.899 19.976C183.899 19.352 183.771 18.8 183.515 18.32C183.259 17.84 182.899 17.464 182.435 17.192C181.987 16.904 181.475 16.76 180.899 16.76C180.307 16.76 179.779 16.904 179.315 17.192C178.867 17.464 178.515 17.84 178.259 18.32C178.003 18.8 177.875 19.344 177.875 19.952C177.875 20.576 178.003 21.128 178.259 21.608C178.515 22.088 178.867 22.464 179.315 22.736C179.779 23.008 180.307 23.144 180.899 23.144ZM194.893 26.288C193.885 26.288 193.029 26.08 192.325 25.664C191.637 25.248 191.109 24.64 190.741 23.84C190.389 23.024 190.213 22.032 190.213 20.864V13.904H193.813V20.504C193.813 21.4 193.997 22.088 194.365 22.568C194.733 23.032 195.325 23.264 196.141 23.264C196.637 23.264 197.077 23.152 197.461 22.928C197.861 22.704 198.165 22.376 198.373 21.944C198.597 21.512 198.709 20.984 198.709 20.36V13.904H202.309V26H199.165L198.877 24.08C198.525 24.736 198.013 25.272 197.341 25.688C196.669 26.088 195.853 26.288 194.893 26.288ZM211.091 26C210.211 26 209.435 25.864 208.763 25.592C208.091 25.304 207.571 24.84 207.203 24.2C206.835 23.56 206.651 22.688 206.651 21.584V16.904H204.587V13.904H206.651L207.035 10.496H210.251V13.904H213.347V16.904H210.251V21.632C210.251 22.112 210.355 22.456 210.563 22.664C210.787 22.856 211.163 22.952 211.691 22.952H213.347V26H211.091ZM221.785 26.288C220.537 26.288 219.441 26.032 218.497 25.52C217.553 24.992 216.809 24.264 216.265 23.336C215.737 22.392 215.473 21.312 215.473 20.096C215.473 18.848 215.737 17.736 216.265 16.76C216.793 15.784 217.529 15.016 218.473 14.456C219.417 13.896 220.513 13.616 221.761 13.616C222.977 13.616 224.041 13.88 224.953 14.408C225.865 14.936 226.577 15.656 227.089 16.568C227.617 17.464 227.881 18.504 227.881 19.688C227.881 19.848 227.873 20.032 227.857 20.24C227.857 20.432 227.841 20.632 227.809 20.84H218.041V18.752H224.209C224.177 18.08 223.929 17.544 223.465 17.144C223.017 16.728 222.457 16.52 221.785 16.52C221.273 16.52 220.809 16.64 220.393 16.88C219.977 17.12 219.641 17.48 219.385 17.96C219.145 18.44 219.025 19.048 219.025 19.784V20.504C219.025 21.064 219.129 21.56 219.337 21.992C219.561 22.424 219.873 22.76 220.273 23C220.689 23.24 221.177 23.36 221.737 23.36C222.265 23.36 222.697 23.256 223.033 23.048C223.385 22.824 223.657 22.544 223.849 22.208H227.521C227.297 22.976 226.913 23.672 226.369 24.296C225.825 24.904 225.161 25.392 224.377 25.76C223.593 26.112 222.729 26.288 221.785 26.288ZM230.529 26V13.904H233.721L234.057 16.112C234.377 15.6 234.753 15.16 235.185 14.792C235.617 14.424 236.113 14.136 236.673 13.928C237.249 13.72 237.865 13.616 238.521 13.616V17.432H237.321C236.841 17.432 236.401 17.488 236.001 17.6C235.617 17.696 235.281 17.864 234.993 18.104C234.721 18.344 234.505 18.672 234.345 19.088C234.201 19.488 234.129 19.992 234.129 20.6V26H230.529ZM246.069 26V9.2H249.669V26H246.069ZM252.841 26V13.904H255.985L256.273 15.848C256.641 15.176 257.161 14.64 257.833 14.24C258.505 13.824 259.321 13.616 260.281 13.616C261.289 13.616 262.137 13.832 262.825 14.264C263.513 14.696 264.033 15.32 264.385 16.136C264.753 16.936 264.937 17.92 264.937 19.088V26H261.361V19.424C261.361 18.544 261.169 17.864 260.785 17.384C260.417 16.888 259.825 16.64 259.009 16.64C258.529 16.64 258.089 16.76 257.689 17C257.305 17.224 257.001 17.552 256.777 17.984C256.553 18.416 256.441 18.936 256.441 19.544V26H252.841ZM273.599 26C272.719 26 271.943 25.864 271.271 25.592C270.599 25.304 270.079 24.84 269.711 24.2C269.343 23.56 269.159 22.688 269.159 21.584V16.904H267.095V13.904H269.159L269.543 10.496H272.759V13.904H275.855V16.904H272.759V21.632C272.759 22.112 272.863 22.456 273.071 22.664C273.295 22.856 273.671 22.952 274.199 22.952H275.855V26H273.599ZM284.293 26.288C283.045 26.288 281.949 26.032 281.005 25.52C280.061 24.992 279.317 24.264 278.773 23.336C278.245 22.392 277.981 21.312 277.981 20.096C277.981 18.848 278.245 17.736 278.773 16.76C279.301 15.784 280.037 15.016 280.981 14.456C281.925 13.896 283.021 13.616 284.269 13.616C285.485 13.616 286.549 13.88 287.461 14.408C288.373 14.936 289.085 15.656 289.597 16.568C290.125 17.464 290.389 18.504 290.389 19.688C290.389 19.848 290.381 20.032 290.365 20.24C290.365 20.432 290.349 20.632 290.317 20.84H280.549V18.752H286.717C286.685 18.08 286.437 17.544 285.973 17.144C285.525 16.728 284.965 16.52 284.293 16.52C283.781 16.52 283.317 16.64 282.901 16.88C282.485 17.12 282.149 17.48 281.893 17.96C281.653 18.44 281.533 19.048 281.533 19.784V20.504C281.533 21.064 281.637 21.56 281.845 21.992C282.069 22.424 282.381 22.76 282.781 23C283.197 23.24 283.685 23.36 284.245 23.36C284.773 23.36 285.205 23.256 285.541 23.048C285.893 22.824 286.165 22.544 286.357 22.208H290.029C289.805 22.976 289.421 23.672 288.877 24.296C288.333 24.904 287.669 25.392 286.885 25.76C286.101 26.112 285.237 26.288 284.293 26.288ZM293.037 26V13.904H296.229L296.565 16.112C296.885 15.6 297.261 15.16 297.693 14.792C298.125 14.424 298.621 14.136 299.181 13.928C299.757 13.72 300.373 13.616 301.029 13.616V17.432H299.829C299.349 17.432 298.909 17.488 298.509 17.6C298.125 17.696 297.789 17.864 297.501 18.104C297.229 18.344 297.013 18.672 296.853 19.088C296.709 19.488 296.637 19.992 296.637 20.6V26H293.037ZM303.619 26V13.04C303.619 11.984 303.803 11.144 304.171 10.52C304.539 9.88 305.051 9.424 305.707 9.152C306.379 8.864 307.147 8.72 308.011 8.72H309.547V11.768H308.587C308.091 11.768 307.739 11.864 307.531 12.056C307.323 12.248 307.219 12.576 307.219 13.04V26H303.619ZM302.035 16.904V13.904H309.715V16.904H302.035ZM315.891 26.288C314.883 26.288 314.043 26.128 313.371 25.808C312.715 25.488 312.227 25.056 311.907 24.512C311.603 23.952 311.451 23.336 311.451 22.664C311.451 21.944 311.627 21.312 311.979 20.768C312.347 20.208 312.915 19.768 313.683 19.448C314.451 19.112 315.419 18.944 316.587 18.944H319.515C319.515 18.4 319.443 17.952 319.299 17.6C319.171 17.248 318.955 16.984 318.651 16.808C318.347 16.632 317.931 16.544 317.403 16.544C316.843 16.544 316.371 16.656 315.987 16.88C315.603 17.104 315.363 17.456 315.267 17.936H311.811C311.891 17.072 312.171 16.32 312.651 15.68C313.147 15.04 313.803 14.536 314.619 14.168C315.435 13.8 316.371 13.616 317.427 13.616C318.579 13.616 319.579 13.808 320.427 14.192C321.275 14.56 321.931 15.104 322.395 15.824C322.875 16.544 323.115 17.44 323.115 18.512V26H320.115L319.683 24.248C319.507 24.552 319.299 24.832 319.059 25.088C318.819 25.328 318.539 25.544 318.219 25.736C317.899 25.912 317.547 26.048 317.163 26.144C316.779 26.24 316.355 26.288 315.891 26.288ZM316.779 23.552C317.163 23.552 317.499 23.488 317.787 23.36C318.075 23.232 318.323 23.056 318.531 22.832C318.739 22.608 318.907 22.352 319.035 22.064C319.179 21.76 319.283 21.432 319.347 21.08V21.056H317.019C316.619 21.056 316.283 21.112 316.011 21.224C315.755 21.32 315.563 21.464 315.435 21.656C315.307 21.848 315.243 22.072 315.243 22.328C315.243 22.6 315.307 22.832 315.435 23.024C315.579 23.2 315.763 23.336 315.987 23.432C316.227 23.512 316.491 23.552 316.779 23.552ZM332.083 26.288C330.835 26.288 329.731 26.016 328.771 25.472C327.827 24.928 327.083 24.184 326.539 23.24C326.011 22.296 325.747 21.216 325.747 20C325.747 18.752 326.011 17.656 326.539 16.712C327.083 15.752 327.827 15 328.771 14.456C329.731 13.896 330.835 13.616 332.083 13.616C333.667 13.616 334.995 14.032 336.067 14.864C337.155 15.696 337.843 16.856 338.131 18.344H334.315C334.171 17.832 333.899 17.432 333.499 17.144C333.099 16.856 332.619 16.712 332.059 16.712C331.531 16.712 331.067 16.848 330.667 17.12C330.283 17.376 329.979 17.752 329.755 18.248C329.531 18.728 329.419 19.296 329.419 19.952C329.419 20.448 329.483 20.896 329.611 21.296C329.739 21.696 329.915 22.04 330.139 22.328C330.379 22.616 330.659 22.84 330.979 23C331.299 23.144 331.659 23.216 332.059 23.216C332.443 23.216 332.779 23.152 333.067 23.024C333.371 22.896 333.627 22.712 333.835 22.472C334.059 22.232 334.219 21.936 334.315 21.584H338.131C337.843 23.024 337.155 24.168 336.067 25.016C334.979 25.864 333.651 26.288 332.083 26.288ZM346.871 26.288C345.623 26.288 344.527 26.032 343.583 25.52C342.639 24.992 341.895 24.264 341.351 23.336C340.823 22.392 340.559 21.312 340.559 20.096C340.559 18.848 340.823 17.736 341.351 16.76C341.879 15.784 342.615 15.016 343.559 14.456C344.503 13.896 345.599 13.616 346.847 13.616C348.063 13.616 349.127 13.88 350.039 14.408C350.951 14.936 351.663 15.656 352.175 16.568C352.703 17.464 352.967 18.504 352.967 19.688C352.967 19.848 352.959 20.032 352.943 20.24C352.943 20.432 352.927 20.632 352.895 20.84H343.127V18.752H349.295C349.263 18.08 349.015 17.544 348.551 17.144C348.103 16.728 347.543 16.52 346.871 16.52C346.359 16.52 345.895 16.64 345.479 16.88C345.063 17.12 344.727 17.48 344.471 17.96C344.231 18.44 344.111 19.048 344.111 19.784V20.504C344.111 21.064 344.215 21.56 344.423 21.992C344.647 22.424 344.959 22.76 345.359 23C345.775 23.24 346.263 23.36 346.823 23.36C347.351 23.36 347.783 23.256 348.119 23.048C348.471 22.824 348.743 22.544 348.935 22.208H352.607C352.383 22.976 351.999 23.672 351.455 24.296C350.911 24.904 350.247 25.392 349.463 25.76C348.679 26.112 347.815 26.288 346.871 26.288Z" fill="#2C5254"/>
</svg>
