<svg width="24" height="28" viewBox="0 0 24 28" fill="none" xmlns="http://www.w3.org/2000/svg">
<path d="M23.8474 15.1355L21.7019 11.5452C21.5808 11.3419 21.5332 11.0867 21.5765 10.8315C21.6414 10.4032 21.676 9.96636 21.676 9.52514C21.6803 4.27377 16.8139 0 10.8401 0C4.86206 0 0 4.27377 0 9.52514C0 11.4674 0.657502 13.3317 1.9033 14.9193C2.2407 15.3475 2.5608 15.8449 2.88955 16.4419L2.96309 16.576C3.71575 17.9472 4.11372 19.4958 4.11372 21.0574V27.0614C4.11372 27.4032 4.39056 27.68 4.73229 27.68H16.0007C16.3424 27.68 16.6192 27.4032 16.6192 27.0614V22.1561C16.6192 22.0047 16.7404 21.8793 16.8918 21.8793H20.3999C21.2347 21.8793 21.9139 21.2001 21.9139 20.3653V16.9437C21.9139 16.8399 22.0004 16.7533 22.1042 16.7533H22.9304C23.3154 16.7533 23.6701 16.5457 23.8604 16.2126C24.0508 15.8796 24.0464 15.4686 23.8474 15.1355ZM22.1042 15.5162C21.3169 15.5162 20.6767 16.1564 20.6767 16.9437V20.3653C20.6767 20.5167 20.5556 20.6378 20.3999 20.6378H16.8918C16.0569 20.6378 15.3778 21.3169 15.3778 22.1518V26.4385H5.35086V21.0617C5.35086 19.2925 4.90099 17.532 4.04451 15.9834L3.97097 15.8493C3.61194 15.1918 3.25291 14.6381 2.87225 14.1579C1.79948 12.791 1.23282 11.1905 1.23282 9.52946C1.23282 4.96155 5.54119 1.24579 10.8315 1.24579C16.1261 1.24579 20.4302 4.96155 20.4302 9.52946C20.4302 9.9058 20.3999 10.2778 20.3437 10.6455C20.2571 11.1862 20.361 11.7356 20.6335 12.1854L22.6233 15.5205H22.1042V15.5162Z" fill="#2C5254"/>
<path d="M15.6287 7.13305C15.3605 5.6926 14.0974 4.60253 12.5834 4.60253C12.0643 4.60253 11.5669 4.72797 11.1257 4.96589C10.5077 4.46516 9.73655 4.19181 8.9412 4.19159C7.03357 4.19159 5.48066 5.74451 5.48066 7.6478V7.66511C4.94898 8.0482 4.55238 8.58993 4.34784 9.21251C4.14329 9.83508 4.14131 10.5065 4.34218 11.1302C4.54306 11.754 4.93645 12.2981 5.46587 12.6843C5.99528 13.0705 6.63347 13.279 7.28879 13.2798H9.30888L7.75164 14.8371C7.57428 15.0144 7.52237 15.2826 7.61754 15.5119C7.7127 15.7455 7.93764 15.8925 8.18853 15.8925H10.8402L8.24044 18.4923C8.15391 18.579 8.09498 18.6895 8.07106 18.8096C8.04713 18.9298 8.05929 19.0544 8.10599 19.1676C8.15269 19.2809 8.23185 19.3779 8.33351 19.4463C8.43518 19.5147 8.5548 19.5515 8.67733 19.5521C8.83738 19.5521 8.9931 19.4915 9.11422 19.3704L12.7737 15.7109C12.9511 15.5335 13.003 15.2653 12.9078 15.0361C12.8127 14.8025 12.5877 14.6554 12.3369 14.6554H9.68521L11.0608 13.2798H15.062C16.7707 13.2798 18.1592 11.8913 18.1592 10.1827C18.1592 8.66434 17.0648 7.40124 15.6287 7.13305ZM15.0577 12.0427H12.2979L12.7694 11.5712C12.8805 11.4537 12.9413 11.2975 12.9391 11.1358C12.9368 10.9741 12.8715 10.8197 12.7572 10.7053C12.6428 10.591 12.4884 10.5257 12.3267 10.5234C12.165 10.5212 12.0088 10.582 11.8913 10.6931L10.5417 12.0427H7.28014C6.25495 12.0427 5.4201 11.2078 5.4201 10.1827C5.4201 9.49487 5.79643 8.86332 6.40635 8.53889C6.63561 8.41777 6.76538 8.15823 6.72645 7.90302C6.71423 7.81996 6.70845 7.73608 6.70915 7.65213C6.70915 6.42796 7.70405 5.43306 8.92822 5.43306C9.55977 5.43306 10.161 5.70125 10.585 6.16842C10.8056 6.41066 11.1732 6.44094 11.4328 6.23763C11.7572 5.97809 12.1552 5.844 12.5748 5.844C13.5999 5.844 14.4348 6.67885 14.4348 7.70404C14.4348 8.04577 14.7116 8.32261 15.0534 8.32261C16.0786 8.32261 16.9134 9.15747 16.9134 10.1827C16.9177 11.2078 16.0872 12.0427 15.0577 12.0427Z" fill="#2C5254"/>
</svg>
