<svg width="24" height="24" viewBox="0 0 24 24" fill="none" xmlns="http://www.w3.org/2000/svg">
<path d="M11.9581 0C11.4697 0.00856905 11.0926 0.0968303 10.6839 0.304201C10.1218 0.589551 8.94695 2.26791 9.35312 1.65725C9.35826 1.64783 9.19116 1.94346 8.94695 2.36677L7.95551 4.07715C7.51249 4.84151 6.89809 5.89722 6.34195 6.85353H7.33168C8.11787 5.49945 8.90337 4.14497 9.68817 2.79008C9.93324 2.36591 10.0618 2.14483 10.1081 2.05829C10.378 1.55785 10.6659 1.26993 11.0704 1.06428C11.402 0.896323 11.5588 0.858619 11.9727 0.851763V0.860332H11.9744C12.3891 0.851763 12.6196 0.904035 12.9478 1.07113C13.3249 1.26308 13.6599 1.60498 13.9273 2.11056C13.9556 2.16368 13.9847 2.20996 14.0541 2.33164L14.3437 2.83378L15.9607 5.62044L13.7568 5.02917L13.5357 5.85609L17.2598 6.85353L18.2589 3.12942L17.4303 2.90662L16.7808 5.32909L16.0815 4.12428C15.6736 3.42162 15.33 2.83293 15.0858 2.41047L14.7979 1.91004L14.6856 1.71381C14.3532 1.0857 13.8973 0.59812 13.3369 0.31277C12.911 0.0954882 12.4367 -0.0092327 11.959 0.00856904H11.9573L11.9581 0ZM3.72582 11.995L0 12.9941L0.222795 13.821L2.6744 13.1629L2.05057 14.2392C1.57364 15.0579 1.09606 15.8763 0.617829 16.6942C0.172238 17.4166 -0.00942602 17.9539 0.00514136 18.5888C0.0222795 19.3772 0.322196 20.049 0.898893 20.6111C1.16625 20.8716 1.35305 21.0079 1.61869 21.1296C1.80464 21.2153 2.01458 21.2967 2.18939 21.3404C2.42076 21.3986 2.69068 21.4046 3.72582 21.4141C4.41735 21.4226 6.17143 21.4226 7.71729 21.4226V20.5623C6.17314 20.5623 4.4182 20.5631 3.73268 20.5537C2.70696 20.5452 2.42761 20.5134 2.39848 20.5057H2.39676C2.25452 20.4604 2.11492 20.4072 1.97859 20.3463C1.76265 20.2469 1.74294 20.2324 1.49616 19.9916C1.04028 19.5469 0.875757 19.1732 0.862046 18.5657C0.850907 18.0764 0.939168 17.8013 1.34705 17.1381C2.00338 16.0158 2.65834 14.8927 3.31194 13.7687L3.89463 15.9419L4.72326 15.7208L3.72582 11.995ZM20.1707 12.8519C20.8815 14.0717 21.5928 15.2914 22.3044 16.5108C22.5555 16.9393 22.6883 17.1672 22.7397 17.2504C23.0884 17.8073 23.1347 17.9513 23.1416 18.5014C23.1467 18.9127 23.1519 18.887 23.0816 19.1081C22.9873 19.4046 22.8537 19.6368 22.624 19.8913C22.3284 20.2195 22.0704 20.3746 21.6506 20.4826C21.4243 20.5392 21.3609 20.5409 20.3703 20.552C19.7739 20.5606 18.1981 20.5649 16.8853 20.5623H15.3746L17.0481 18.8888L16.4423 18.2829L13.7156 21.0096L16.4423 23.7354L17.0481 23.1296L15.3412 21.4226H17.3095C18.5031 21.4226 19.8399 21.4226 20.3806 21.4141C21.3755 21.4029 21.5846 21.3883 21.8631 21.3172C22.4046 21.1841 22.8925 20.8887 23.2615 20.4706C23.5589 20.1398 23.7697 19.7791 23.8991 19.372C23.9805 19.115 24.0045 18.9213 23.9993 18.4972C23.9908 17.8596 23.4371 16.7011 23.4672 16.8013C23.4698 16.8099 23.2958 16.5117 23.0456 16.0841L21.1604 12.8519H20.1707Z" fill="#2C5254"/>
</svg>
